<mxfile host="app.diagrams.net" modified="2020-10-17T04:48:06.777Z" agent="5.0 (Macintosh; Intel Mac OS X 10_15_7) AppleWebKit/537.36 (KHTML, like Gecko) Chrome/86.0.4240.75 Safari/537.36" etag="hgj2j_XRZxbUcztsKU-y" version="13.8.0" type="github">
  <diagram id="VqOy9UcTznLti8Iem_Px" name="Page-1">
    <mxGraphModel dx="1298" dy="754" grid="1" gridSize="10" guides="1" tooltips="1" connect="1" arrows="1" fold="1" page="1" pageScale="1" pageWidth="850" pageHeight="1100" math="0" shadow="0">
      <root>
        <mxCell id="0" />
        <mxCell id="1" parent="0" />
        <mxCell id="QkzKYuwfc3sgGfwPdK_l-1" style="edgeStyle=orthogonalEdgeStyle;curved=1;orthogonalLoop=1;jettySize=auto;html=1;entryX=1;entryY=0.5;entryDx=0;entryDy=0;startArrow=none;startFill=0;endArrow=classic;endFill=1;" parent="1" source="QkzKYuwfc3sgGfwPdK_l-22" target="QkzKYuwfc3sgGfwPdK_l-7" edge="1">
          <mxGeometry relative="1" as="geometry" />
        </mxCell>
        <mxCell id="QkzKYuwfc3sgGfwPdK_l-2" value="" style="edgeStyle=orthogonalEdgeStyle;curved=1;orthogonalLoop=1;jettySize=auto;html=1;startArrow=none;startFill=0;endArrow=classic;endFill=1;" parent="1" source="QkzKYuwfc3sgGfwPdK_l-3" target="QkzKYuwfc3sgGfwPdK_l-22" edge="1">
          <mxGeometry relative="1" as="geometry" />
        </mxCell>
        <mxCell id="QkzKYuwfc3sgGfwPdK_l-3" value="&lt;b&gt;Available&lt;/b&gt;" style="ellipse;whiteSpace=wrap;html=1;aspect=fixed;fillColor=#dae8fc;strokeColor=#6c8ebf;gradientColor=#ffffff;" parent="1" vertex="1">
          <mxGeometry x="500" y="340" width="80" height="80" as="geometry" />
        </mxCell>
        <mxCell id="QkzKYuwfc3sgGfwPdK_l-4" style="edgeStyle=orthogonalEdgeStyle;curved=1;orthogonalLoop=1;jettySize=auto;html=1;entryX=0.5;entryY=0;entryDx=0;entryDy=0;startArrow=none;startFill=0;endArrow=classic;endFill=1;" parent="1" source="QkzKYuwfc3sgGfwPdK_l-25" target="QkzKYuwfc3sgGfwPdK_l-36" edge="1">
          <mxGeometry relative="1" as="geometry" />
        </mxCell>
        <mxCell id="QkzKYuwfc3sgGfwPdK_l-5" value="&lt;b&gt;Started&lt;/b&gt;" style="ellipse;whiteSpace=wrap;html=1;aspect=fixed;fillColor=#dae8fc;strokeColor=#6c8ebf;gradientColor=#ffffff;" parent="1" vertex="1">
          <mxGeometry x="127" y="535" width="80" height="80" as="geometry" />
        </mxCell>
        <mxCell id="QkzKYuwfc3sgGfwPdK_l-6" style="edgeStyle=orthogonalEdgeStyle;curved=1;orthogonalLoop=1;jettySize=auto;html=1;entryX=0.5;entryY=0;entryDx=0;entryDy=0;startArrow=none;startFill=0;endArrow=classic;endFill=1;" parent="1" source="QkzKYuwfc3sgGfwPdK_l-23" target="QkzKYuwfc3sgGfwPdK_l-5" edge="1">
          <mxGeometry relative="1" as="geometry" />
        </mxCell>
        <mxCell id="QkzKYuwfc3sgGfwPdK_l-7" value="&lt;b&gt;Requested&lt;/b&gt;" style="ellipse;whiteSpace=wrap;html=1;aspect=fixed;fillColor=#dae8fc;strokeColor=#6c8ebf;gradientColor=#ffffff;" parent="1" vertex="1">
          <mxGeometry x="127" y="340" width="80" height="80" as="geometry" />
        </mxCell>
        <mxCell id="QkzKYuwfc3sgGfwPdK_l-8" style="edgeStyle=orthogonalEdgeStyle;curved=1;orthogonalLoop=1;jettySize=auto;html=1;entryX=0.5;entryY=1;entryDx=0;entryDy=0;startArrow=none;startFill=0;endArrow=classic;endFill=1;" parent="1" source="QkzKYuwfc3sgGfwPdK_l-39" target="QkzKYuwfc3sgGfwPdK_l-18" edge="1">
          <mxGeometry relative="1" as="geometry" />
        </mxCell>
        <mxCell id="QkzKYuwfc3sgGfwPdK_l-9" value="&lt;b&gt;RolledBack&lt;/b&gt;" style="ellipse;shape=doubleEllipse;whiteSpace=wrap;html=1;aspect=fixed;fillColor=#f8cecc;strokeColor=#b85450;gradientColor=#ffffff;" parent="1" vertex="1">
          <mxGeometry x="500" y="975" width="80" height="80" as="geometry" />
        </mxCell>
        <mxCell id="QkzKYuwfc3sgGfwPdK_l-10" style="edgeStyle=orthogonalEdgeStyle;curved=1;orthogonalLoop=1;jettySize=auto;html=1;startArrow=none;startFill=0;endArrow=classic;endFill=1;" parent="1" source="QkzKYuwfc3sgGfwPdK_l-11" target="QkzKYuwfc3sgGfwPdK_l-39" edge="1">
          <mxGeometry relative="1" as="geometry" />
        </mxCell>
        <mxCell id="QkzKYuwfc3sgGfwPdK_l-11" value="&lt;b&gt;Success&lt;/b&gt;" style="ellipse;shape=doubleEllipse;whiteSpace=wrap;html=1;aspect=fixed;fillColor=#f8cecc;strokeColor=#b85450;gradientColor=#ffffff;" parent="1" vertex="1">
          <mxGeometry x="500" y="660" width="80" height="80" as="geometry" />
        </mxCell>
        <mxCell id="QkzKYuwfc3sgGfwPdK_l-12" style="edgeStyle=orthogonalEdgeStyle;curved=1;orthogonalLoop=1;jettySize=auto;html=1;entryX=0.5;entryY=0;entryDx=0;entryDy=0;startArrow=none;startFill=0;endArrow=classic;endFill=1;" parent="1" source="QkzKYuwfc3sgGfwPdK_l-37" target="QkzKYuwfc3sgGfwPdK_l-16" edge="1">
          <mxGeometry relative="1" as="geometry" />
        </mxCell>
        <mxCell id="QkzKYuwfc3sgGfwPdK_l-13" value="" style="edgeStyle=orthogonalEdgeStyle;curved=1;orthogonalLoop=1;jettySize=auto;html=1;startArrow=none;startFill=0;endArrow=classic;endFill=1;entryX=0;entryY=0.5;entryDx=0;entryDy=0;" parent="1" source="QkzKYuwfc3sgGfwPdK_l-19" target="QkzKYuwfc3sgGfwPdK_l-11" edge="1">
          <mxGeometry relative="1" as="geometry">
            <mxPoint x="380" y="710" as="targetPoint" />
          </mxGeometry>
        </mxCell>
        <mxCell id="QkzKYuwfc3sgGfwPdK_l-14" style="edgeStyle=orthogonalEdgeStyle;curved=1;orthogonalLoop=1;jettySize=auto;html=1;entryX=0;entryY=0.5;entryDx=0;entryDy=0;startArrow=none;startFill=0;endArrow=classic;endFill=1;" parent="1" source="QkzKYuwfc3sgGfwPdK_l-33" target="QkzKYuwfc3sgGfwPdK_l-32" edge="1">
          <mxGeometry relative="1" as="geometry" />
        </mxCell>
        <mxCell id="QkzKYuwfc3sgGfwPdK_l-15" value="" style="edgeStyle=orthogonalEdgeStyle;curved=1;orthogonalLoop=1;jettySize=auto;html=1;startArrow=none;startFill=0;endArrow=classic;endFill=1;" parent="1" source="QkzKYuwfc3sgGfwPdK_l-20" target="QkzKYuwfc3sgGfwPdK_l-9" edge="1">
          <mxGeometry relative="1" as="geometry" />
        </mxCell>
        <mxCell id="QkzKYuwfc3sgGfwPdK_l-16" value="&lt;b&gt;RollingBack&lt;/b&gt;" style="ellipse;whiteSpace=wrap;html=1;aspect=fixed;fillColor=#dae8fc;strokeColor=#6c8ebf;gradientColor=#ffffff;" parent="1" vertex="1">
          <mxGeometry x="127" y="975" width="80" height="80" as="geometry" />
        </mxCell>
        <mxCell id="QkzKYuwfc3sgGfwPdK_l-17" style="edgeStyle=orthogonalEdgeStyle;curved=1;orthogonalLoop=1;jettySize=auto;html=1;entryX=1;entryY=0.5;entryDx=0;entryDy=0;startArrow=none;startFill=0;endArrow=classic;endFill=1;exitX=0.5;exitY=0;exitDx=0;exitDy=0;" parent="1" source="QkzKYuwfc3sgGfwPdK_l-18" target="QkzKYuwfc3sgGfwPdK_l-3" edge="1">
          <mxGeometry relative="1" as="geometry" />
        </mxCell>
        <mxCell id="QkzKYuwfc3sgGfwPdK_l-18" value="&lt;b&gt;None&lt;/b&gt;" style="ellipse;whiteSpace=wrap;html=1;aspect=fixed;labelBackgroundColor=none;fillColor=#dae8fc;strokeColor=#6c8ebf;gradientColor=#ffffff;" parent="1" vertex="1">
          <mxGeometry x="630" y="510" width="80" height="80" as="geometry" />
        </mxCell>
        <mxCell id="QkzKYuwfc3sgGfwPdK_l-19" value="restart enforcer &lt;br&gt;succeeded" style="text;html=1;resizable=0;points=[];autosize=1;align=left;verticalAlign=top;spacingTop=-4;" parent="1" vertex="1">
          <mxGeometry x="340" y="685" width="100" height="30" as="geometry" />
        </mxCell>
        <mxCell id="QkzKYuwfc3sgGfwPdK_l-20" value="rollback&lt;br&gt;finished&lt;br&gt;" style="text;html=1;resizable=0;points=[];autosize=1;align=left;verticalAlign=top;spacingTop=-4;" parent="1" vertex="1">
          <mxGeometry x="340" y="1000" width="60" height="30" as="geometry" />
        </mxCell>
        <mxCell id="QkzKYuwfc3sgGfwPdK_l-21" value="" style="edgeStyle=orthogonalEdgeStyle;curved=1;orthogonalLoop=1;jettySize=auto;html=1;startArrow=none;startFill=0;endArrow=classic;endFill=1;" parent="1" source="QkzKYuwfc3sgGfwPdK_l-16" target="QkzKYuwfc3sgGfwPdK_l-20" edge="1">
          <mxGeometry relative="1" as="geometry">
            <mxPoint x="260" y="990" as="sourcePoint" />
            <mxPoint x="260" y="1050" as="targetPoint" />
          </mxGeometry>
        </mxCell>
        <mxCell id="QkzKYuwfc3sgGfwPdK_l-22" value="POST to &lt;br&gt;/requestUpgrade&lt;br&gt;from the UI" style="text;html=1;resizable=0;points=[];autosize=1;align=left;verticalAlign=top;spacingTop=-4;" parent="1" vertex="1">
          <mxGeometry x="325" y="360" width="100" height="40" as="geometry" />
        </mxCell>
        <mxCell id="QkzKYuwfc3sgGfwPdK_l-23" value="start &lt;br&gt;upgrade" style="text;html=1;resizable=0;points=[];autosize=1;align=center;verticalAlign=top;spacingTop=-4;" parent="1" vertex="1">
          <mxGeometry x="137" y="460" width="60" height="30" as="geometry" />
        </mxCell>
        <mxCell id="QkzKYuwfc3sgGfwPdK_l-24" style="edgeStyle=orthogonalEdgeStyle;curved=1;orthogonalLoop=1;jettySize=auto;html=1;entryX=0.5;entryY=0;entryDx=0;entryDy=0;startArrow=none;startFill=0;endArrow=classic;endFill=1;" parent="1" source="QkzKYuwfc3sgGfwPdK_l-7" target="QkzKYuwfc3sgGfwPdK_l-23" edge="1">
          <mxGeometry relative="1" as="geometry">
            <mxPoint x="207" y="430" as="sourcePoint" />
            <mxPoint x="167" y="520" as="targetPoint" />
          </mxGeometry>
        </mxCell>
        <mxCell id="QkzKYuwfc3sgGfwPdK_l-25" value="upgrade &lt;br&gt;available" style="text;html=1;resizable=0;points=[];autosize=1;align=left;verticalAlign=top;spacingTop=-4;" parent="1" vertex="1">
          <mxGeometry x="137" y="670" width="60" height="30" as="geometry" />
        </mxCell>
        <mxCell id="QkzKYuwfc3sgGfwPdK_l-26" style="edgeStyle=orthogonalEdgeStyle;curved=1;orthogonalLoop=1;jettySize=auto;html=1;entryX=0.5;entryY=0;entryDx=0;entryDy=0;startArrow=none;startFill=0;endArrow=classic;endFill=1;" parent="1" source="QkzKYuwfc3sgGfwPdK_l-5" target="QkzKYuwfc3sgGfwPdK_l-25" edge="1">
          <mxGeometry relative="1" as="geometry">
            <mxPoint x="167" y="600" as="sourcePoint" />
            <mxPoint x="167" y="670" as="targetPoint" />
          </mxGeometry>
        </mxCell>
        <mxCell id="QkzKYuwfc3sgGfwPdK_l-27" value="" style="group;fillColor=#d5e8d4;strokeColor=#82b366;" parent="1" vertex="1" connectable="0">
          <mxGeometry x="470" y="535" width="60" height="30" as="geometry" />
        </mxCell>
        <mxCell id="QkzKYuwfc3sgGfwPdK_l-28" value="" style="rounded=1;whiteSpace=wrap;html=1;fillColor=#d5e8d4;strokeColor=#82b366;gradientColor=#ffffff;" parent="QkzKYuwfc3sgGfwPdK_l-27" vertex="1">
          <mxGeometry width="60" height="30" as="geometry" />
        </mxCell>
        <mxCell id="QkzKYuwfc3sgGfwPdK_l-29" value="&lt;b&gt;START&lt;/b&gt;" style="text;html=1;resizable=0;points=[];autosize=1;align=left;verticalAlign=top;spacingTop=-4;" parent="QkzKYuwfc3sgGfwPdK_l-27" vertex="1">
          <mxGeometry x="9.833333333333371" y="4.833333333333371" width="50" height="20" as="geometry" />
        </mxCell>
        <mxCell id="QkzKYuwfc3sgGfwPdK_l-30" value="" style="edgeStyle=orthogonalEdgeStyle;curved=1;orthogonalLoop=1;jettySize=auto;html=1;startArrow=none;startFill=0;endArrow=classic;endFill=1;entryX=0;entryY=0.5;entryDx=0;entryDy=0;" parent="1" source="QkzKYuwfc3sgGfwPdK_l-29" target="QkzKYuwfc3sgGfwPdK_l-18" edge="1">
          <mxGeometry relative="1" as="geometry">
            <mxPoint x="619.8333333333335" y="544.8333333333335" as="targetPoint" />
          </mxGeometry>
        </mxCell>
        <mxCell id="QkzKYuwfc3sgGfwPdK_l-31" style="edgeStyle=orthogonalEdgeStyle;curved=1;orthogonalLoop=1;jettySize=auto;html=1;entryX=0.494;entryY=0.989;entryDx=0;entryDy=0;entryPerimeter=0;startArrow=none;startFill=0;endArrow=classic;endFill=1;" parent="1" source="QkzKYuwfc3sgGfwPdK_l-32" target="QkzKYuwfc3sgGfwPdK_l-39" edge="1">
          <mxGeometry relative="1" as="geometry" />
        </mxCell>
        <mxCell id="QkzKYuwfc3sgGfwPdK_l-32" value="&lt;b&gt;Failed&lt;/b&gt;" style="ellipse;shape=doubleEllipse;whiteSpace=wrap;html=1;aspect=fixed;fillColor=#f8cecc;strokeColor=#b85450;gradientColor=#ffffff;" parent="1" vertex="1">
          <mxGeometry x="500" y="808.5" width="80" height="80" as="geometry" />
        </mxCell>
        <mxCell id="QkzKYuwfc3sgGfwPdK_l-33" value="Installation&lt;br&gt;failed" style="text;html=1;resizable=0;points=[];autosize=1;align=left;verticalAlign=top;spacingTop=-4;" parent="1" vertex="1">
          <mxGeometry x="340" y="833.5" width="70" height="30" as="geometry" />
        </mxCell>
        <mxCell id="QkzKYuwfc3sgGfwPdK_l-34" style="edgeStyle=orthogonalEdgeStyle;curved=1;orthogonalLoop=1;jettySize=auto;html=1;exitX=1;exitY=0.5;exitDx=0;exitDy=0;entryX=0;entryY=0.5;entryDx=0;entryDy=0;startArrow=none;startFill=0;endArrow=classic;endFill=1;" parent="1" source="QkzKYuwfc3sgGfwPdK_l-36" target="QkzKYuwfc3sgGfwPdK_l-33" edge="1">
          <mxGeometry relative="1" as="geometry">
            <mxPoint x="195" y="738" as="sourcePoint" />
            <mxPoint x="500" y="850" as="targetPoint" />
          </mxGeometry>
        </mxCell>
        <mxCell id="QkzKYuwfc3sgGfwPdK_l-35" style="edgeStyle=orthogonalEdgeStyle;curved=1;orthogonalLoop=1;jettySize=auto;html=1;exitX=1;exitY=0;exitDx=0;exitDy=0;startArrow=none;startFill=0;endArrow=classic;endFill=1;entryX=-0.033;entryY=0.45;entryDx=0;entryDy=0;entryPerimeter=0;" parent="1" source="QkzKYuwfc3sgGfwPdK_l-36" target="QkzKYuwfc3sgGfwPdK_l-19" edge="1">
          <mxGeometry relative="1" as="geometry">
            <mxPoint x="260" y="650" as="targetPoint" />
            <Array as="points">
              <mxPoint x="250" y="819" />
              <mxPoint x="250" y="699" />
            </Array>
          </mxGeometry>
        </mxCell>
        <mxCell id="QkzKYuwfc3sgGfwPdK_l-36" value="&lt;b&gt;InProgress&lt;/b&gt;" style="ellipse;whiteSpace=wrap;html=1;aspect=fixed;fillColor=#dae8fc;strokeColor=#6c8ebf;gradientColor=#ffffff;" parent="1" vertex="1">
          <mxGeometry x="125.5" y="807" width="83" height="83" as="geometry" />
        </mxCell>
        <mxCell id="QkzKYuwfc3sgGfwPdK_l-37" value="restart enforcer&lt;br&gt;failed" style="text;html=1;resizable=0;points=[];autosize=1;align=center;verticalAlign=top;spacingTop=-4;" parent="1" vertex="1">
          <mxGeometry x="117" y="920" width="100" height="30" as="geometry" />
        </mxCell>
        <mxCell id="QkzKYuwfc3sgGfwPdK_l-38" style="edgeStyle=orthogonalEdgeStyle;curved=1;orthogonalLoop=1;jettySize=auto;html=1;entryX=0.5;entryY=0;entryDx=0;entryDy=0;startArrow=none;startFill=0;endArrow=classic;endFill=1;" parent="1" source="QkzKYuwfc3sgGfwPdK_l-36" target="QkzKYuwfc3sgGfwPdK_l-37" edge="1">
          <mxGeometry relative="1" as="geometry">
            <mxPoint x="167" y="890" as="sourcePoint" />
            <mxPoint x="167" y="975" as="targetPoint" />
          </mxGeometry>
        </mxCell>
        <mxCell id="QkzKYuwfc3sgGfwPdK_l-39" value="24 hours&lt;br&gt;expires" style="text;html=1;resizable=0;points=[];autosize=1;align=center;verticalAlign=top;spacingTop=-4;" parent="1" vertex="1">
          <mxGeometry x="640" y="610" width="60" height="30" as="geometry" />
        </mxCell>
        <mxCell id="QkzKYuwfc3sgGfwPdK_l-40" style="edgeStyle=orthogonalEdgeStyle;curved=1;orthogonalLoop=1;jettySize=auto;html=1;entryX=0.5;entryY=1;entryDx=0;entryDy=0;startArrow=none;startFill=0;endArrow=classic;endFill=1;" parent="1" source="QkzKYuwfc3sgGfwPdK_l-9" target="QkzKYuwfc3sgGfwPdK_l-39" edge="1">
          <mxGeometry relative="1" as="geometry">
            <mxPoint x="579.9986110869977" y="1014.6666666666667" as="sourcePoint" />
            <mxPoint x="669.6666666666667" y="589.6666666666667" as="targetPoint" />
          </mxGeometry>
        </mxCell>
      </root>
    </mxGraphModel>
  </diagram>
</mxfile>
